/* XPM */
static char *_2800d7a6373476eadc42f4bb84e87b9JXIYIpXI4nzhlZlS[] = {
/* columns rows colors chars-per-pixel */
"16 16 6 1 ",
"  c None",
". c #14182E",
"X c #AD2F45",
"o c #686F99",
"O c #A3A7C2",
"+ c #DFE0E8",
/* pixels */
"     ......     ",
"    .++++OO.    ",
"   .++++++OO.   ",
"   .++++OOOO.   ",
"   .++OOOOOO.   ",
"   .+O.+OooO.   ",
"   .O..+oOOo.   ",
"   .+X.OOOOo.   ",
"   .o+OOOoo.    ",
"   .+.++.o.     ",
"   .....o+.     ",
"  .++++OO+.     ",
"  .+O.Ooo+.     ",
"   ..++oo.o.    ",
"   .OO...oo.    ",
"    ..   ..     "
};
