/* XPM */
static char *enemy_idle_right1679578183[] = {
/* columns rows colors chars-per-pixel */
"16 16 6 1 ",
"  c None",
". c #14182E",
"X c #AD2F45",
"o c #686F99",
"O c #A3A7C2",
"+ c #DFE0E8",
/* pixels */
"     ......     ",
"    .OO++++.    ",
"   .OO++++++.   ",
"   .OOOO++++.   ",
"   .OOOOOO++.   ",
"   .OooO+.O+.   ",
"   .oOOo+..O.   ",
"   .oOOOO.X+.   ",
"    .ooOOO+o.   ",
"     .o.++.+.   ",
"     .Oo....    ",
"     .+.O+.     ",
"     .+O.O.     ",
"     .++.+.     ",
"      ..oo.     ",
"        ..      "
};
