/* XPM */
static char *e8135b7f4423400ba5bbeb6cc4734ccewDINftkPLkq4TPJ1[] = {
/* columns rows colors chars-per-pixel */
"16 16 10 1 ",
"  c None",
". c #313433",
"X c #414643",
"o c #525855",
"O c #575D5B",
"+ c #626A66",
"@ c #656D6A",
"# c #6C7370",
"$ c #7C807E",
"% c #A7B0AC",
/* pixels */
"                ",
"                ",
"       ++       ",
"      +%%+      ",
"     +%%%%+     ",
"    +O%%%%%+    ",
"    +$#%%%%O+   ",
"    +$$#%%#%%+  ",
"   +%#$$#O%%%X  ",
"  X%%%o#o%%%%X  ",
"  XOO#@o#@%%%X  ",
"  X$$$$$$$O%%.  ",
"   .$$$$$$$O.   ",
"    .......     ",
"                ",
"                "
};
